<?xml version="1.0" encoding="UTF-8"?> <svg xmlns="http://www.w3.org/2000/svg" width="40.772" height="45.382" viewBox="0 0 40.772 45.382"><g id="blind" transform="translate(-26.001)"><g id="Сгруппировать_87" data-name="Сгруппировать 87" transform="translate(26.001 0)"><path id="Контур_5742" data-name="Контур 5742" d="M66.541,43.9,48.9,24.651V22.337a3.549,3.549,0,0,0-3.545-3.545H40.926V11.7a3.526,3.526,0,0,0-.244-1.29,5.317,5.317,0,1,0-6.847-5.091A5.283,5.283,0,0,0,35.215,8.9a3.541,3.541,0,0,0-1.38,2.8V30.761l-7.575,7.575a.886.886,0,0,0,0,1.254l3.76,3.761a.886.886,0,0,0,1.253,0l2.561-2.561V44.5a.886.886,0,0,0,.886.886H40.04a.886.886,0,0,0,.886-.886V39.177a.886.886,0,1,0-1.773,0v4.432H35.608v-18.2a3.522,3.522,0,0,0,1.773.477h1.773V31.2a.886.886,0,1,0,1.773,0V25.882h6.7L65.234,45.094a.886.886,0,0,0,1.307-1.2ZM35.608,5.318a3.545,3.545,0,1,1,3.875,3.529,3.526,3.526,0,0,0-2.1-.693c-.112,0-.222.006-.331.016A3.522,3.522,0,0,1,35.608,5.318Zm-4.96,36.151-2.507-2.507,5.694-5.694v5.014Zm16.483-17.36h-9.75a1.775,1.775,0,0,1-1.773-1.773V11.7a1.773,1.773,0,1,1,3.545,0v7.977a.886.886,0,0,0,.886.886h5.318a1.775,1.775,0,0,1,1.773,1.773v1.773Z" transform="translate(-26.001 0)" fill="#718f79"></path><path id="Контур_5743" data-name="Контур 5743" d="M175.275,387a.886.886,0,0,0-.886.886h0a.886.886,0,1,0,.886-.887Z" transform="translate(-161.237 -352.694)" fill="#718f79"></path></g></g></svg> 