<?xml version="1.0" encoding="UTF-8"?> <svg xmlns="http://www.w3.org/2000/svg" width="45.225" height="45.233" viewBox="0 0 45.225 45.233"><g id="noun_Sugar_Free_3569336_1_" data-name="noun_Sugar Free_3569336(1)" transform="translate(-9.097 -9.105)"><path id="Контур_5731" data-name="Контур 5731" d="M43.9,12.672A22.613,22.613,0,1,0,53.97,35.693,22.611,22.611,0,0,0,43.9,12.672ZM11.055,36.251A21.151,21.151,0,0,1,48.067,18.3l-8.379,6.4-.9-.518a.733.733,0,0,0-.839-.071L34.932,25.87,33.984,21.7a.733.733,0,0,0-.608-.7l-9.409-2.893a.733.733,0,0,0-.833.115L15.879,24.99a.733.733,0,0,0-.214.7l2.215,9.691a.14.14,0,0,0,.006.027l.008.03c.005.016.011.032.017.048l.005.014a.691.691,0,0,0,.064.121l.005.008c.011.016.021.03.033.045l.013.016.029.033.019.018c.009.009.018.018.028.027l.023.019.028.022.025.018.045.027.024.013.048.023.02.007.047.017h.009l4.731,1.453-8.646,6.6a21.091,21.091,0,0,1-3.409-7.721ZM38.471,33.9l-4.807-2.757L39.8,26.457l5.77,3.308ZM46.3,31.038l.011,8.217-7.1,4.139V35.17Zm-15.8,5.587-.006-3.049L32.4,32.11l5.34,3.063V43.4L30.5,39.249v-2.49a.689.689,0,0,0,0-.136Zm-1.479-6.883.006,3.114-1.094.836-1.12-4.946,6-5.6.8,3.5-4.227,2.464a.733.733,0,0,0-.365.635Zm.013,6.639-.407.374-.339-1.5.743-.567Zm-3.65-7.319,1.268,5.6-2.106,1.61-5.326-1.638L17.38,26.6ZM17.8,25.2l6.01-5.6,8.007,2.461-6.011,5.6ZM27,36.238l.193.854-.934-.288Zm7.732-8.556a.706.706,0,0,0,.153-.092L38.3,25.6l.12.069-6.136,4.689-1.08-.619Zm-3.706,3.639-.539.412V31.01Zm5.22,21.051a21.1,21.1,0,0,1-20.891-7.236L24.827,37.9l3.14.961h0a.672.672,0,0,0,.092.022h.026a.708.708,0,0,0,.087.006h.013a.6.6,0,0,0,.1-.008h.018a.726.726,0,0,0,.1-.024l.016-.005a.732.732,0,0,0,.092-.04h0a.684.684,0,0,0,.085-.052l.014-.009c.022-.016.043-.034.064-.052l.344-.321v1.362a.084.084,0,0,0,0,.034.094.094,0,0,1,0,.036.156.156,0,0,0,.009.038c0,.013,0,.019.007.029s.008.027.013.039l.01.027a.275.275,0,0,0,.016.038.2.2,0,0,0,.014.028.358.358,0,0,0,.017.032l.018.031c.006.009.013.017.018.027l.024.032.02.023a.251.251,0,0,0,.027.03l.022.021c.009.009.018.018.028.027l.029.023.026.019.04.026.015.01L38.092,45.3h0c.022.013.045.023.068.034l.019.009.032.01a.723.723,0,0,0,.243.044h0a.723.723,0,0,0,.246-.045l.03-.01.031-.016a.48.48,0,0,0,.058-.028h0l8.566-4.994.016-.01.038-.025.027-.02.028-.023.028-.026.022-.022c.01-.01.018-.02.027-.03l.019-.023c.008-.011.016-.021.024-.032l.018-.027c.006-.01.013-.02.018-.03L47.669,40a.267.267,0,0,0,.013-.028c.006-.012.011-.025.016-.038l.01-.027c0-.013.008-.026.012-.039l.008-.029.008-.038a.1.1,0,0,1,0-.036c0-.012,0-.022,0-.034a.135.135,0,0,0,0-.043v-.019l-.014-9.782a.733.733,0,0,0-.44-.813l-6.228-3.587,7.89-6.026A21.167,21.167,0,0,1,36.243,52.371Z" transform="translate(0)" fill="#718f79"></path></g></svg> 