<?xml version="1.0" encoding="UTF-8"?> <svg xmlns="http://www.w3.org/2000/svg" width="45.558" height="39.115" viewBox="0 0 45.558 39.115"><g id="noun_Blood_Pressure_810846" data-name="noun_Blood Pressure_810846" transform="translate(323.25 -65.75)"><g id="Сгруппировать_88" data-name="Сгруппировать 88" transform="translate(-338 -906.362)"><path id="Контур_5744" data-name="Контур 5744" d="M26.586,20C21.632,20,15,24.414,15,33.517c0,4.975,3.179,9.764,7.5,14.04a79.767,79.767,0,0,0,14.7,10.963.644.644,0,0,0,.644,0,79.77,79.77,0,0,0,14.7-10.963c4.324-4.276,7.5-9.066,7.5-14.04,0-9.1-6.632-13.517-11.586-13.517a12.7,12.7,0,0,0-10.943,6.014A12.7,12.7,0,0,0,26.586,20Zm0,1.287a11.554,11.554,0,0,1,10.4,6.115.644.644,0,0,0,1.086,0,11.554,11.554,0,0,1,10.4-6.115c4.188,0,10.3,3.748,10.3,12.23a11.631,11.631,0,0,1-.7,3.862H42.678a.644.644,0,0,0-.583.362L39.56,43.313l-4-12.572a.629.629,0,0,0-1.207-.02l-2.414,6.658H25.3a.644.644,0,1,0,0,1.287h7.08a.644.644,0,0,0,.6-.422l1.931-5.331,3.943,12.371a.644.644,0,0,0,1.187.08l3.037-6.7H57.543a28.058,28.058,0,0,1-5.914,7.966,77.8,77.8,0,0,1-14.1,10.58,77.8,77.8,0,0,1-14.1-10.58c-4.2-4.158-7.141-8.7-7.141-13.115C16.287,25.035,22.4,21.287,26.586,21.287Z" transform="translate(0 952.362)" fill="#718f79" stroke="#718f79" stroke-width="0.5"></path></g></g></svg> 