<?xml version="1.0" encoding="UTF-8"?> <svg xmlns="http://www.w3.org/2000/svg" width="42.298" height="31.481" viewBox="0 0 42.298 31.481"><g id="noun_Bed_3602870" transform="translate(258.847 -76.015)"><path id="Контур_5724" data-name="Контур 5724" d="M46.451,45.818v0a.946.946,0,0,0-.012-.119c0-.021,0-.042-.006-.062v-.007L43.959,33.254V25.812A4.317,4.317,0,0,0,39.645,21.5H10.957a4.317,4.317,0,0,0-4.312,4.312v7.441L4.171,45.622v.007c0,.022,0,.043-.006.062a.945.945,0,0,0-.012.119v6.234a.935.935,0,0,0,.935.935H45.516a.935.935,0,0,0,.935-.935V45.818ZM8.347,34.28H42.255l2.12,10.6H6.227ZM21.5,32.41H12.715V30.137a.754.754,0,0,1,.753-.753h7.274a.754.754,0,0,1,.753.753Zm16.392,0H29.107V30.137a.754.754,0,0,1,.753-.753h7.274a.754.754,0,0,1,.753.753Zm-29.372-6.6a2.445,2.445,0,0,1,2.442-2.442H39.645a2.445,2.445,0,0,1,2.442,2.442v6.6H39.758V30.137a2.626,2.626,0,0,0-2.624-2.624H29.86a2.626,2.626,0,0,0-2.624,2.624V32.41H23.366V30.137a2.626,2.626,0,0,0-2.624-2.624H13.468a2.626,2.626,0,0,0-2.624,2.624V32.41H8.515Zm36.064,25.3H6.022V46.748H44.579Z" transform="translate(-263 54.515)" fill="#718f79"></path></g></svg> 