<?xml version="1.0" encoding="UTF-8"?> <svg xmlns="http://www.w3.org/2000/svg" width="41.454" height="41.473" viewBox="0 0 41.454 41.473"><g id="noun_old_woman_1818668_1_" data-name="noun_old woman_1818668(1)" transform="translate(-4.658 -4.65)"><g id="Сгруппировать_89" data-name="Сгруппировать 89" transform="translate(5 5)"><path id="Контур_5745" data-name="Контур 5745" d="M28.916,37.684a.455.455,0,0,0-.452.458,2.865,2.865,0,0,1-3.082,2.573A2.866,2.866,0,0,1,22.3,38.142a.452.452,0,1,0-.9,0,3.767,3.767,0,0,0,3.986,3.49,3.767,3.767,0,0,0,3.985-3.49A.455.455,0,0,0,28.916,37.684Zm6.575-7.331a.451.451,0,0,0-.9-.044,2.69,2.69,0,0,1-1.635.384,2.687,2.687,0,0,1-1.634-.384.452.452,0,0,0-.9.044c0,.863,1.314,1.255,2.536,1.255S35.491,31.216,35.491,30.353ZM18.048,31.608c1.221,0,2.536-.393,2.536-1.255a.452.452,0,0,0-.9-.044,2.689,2.689,0,0,1-1.634.384,2.692,2.692,0,0,1-1.635-.384.451.451,0,0,0-.9.044C15.513,31.216,16.827,31.608,18.048,31.608Zm25.17-7.234a18.245,18.245,0,0,0-8.785-12.565C34.385,7.482,31.1,5,25.383,5c-5.557,0-8.911,2.54-9.044,6.8A18.247,18.247,0,0,0,7.553,24.332a.443.443,0,0,0-.16.118c-2.32.678-2.455,2.548-2.378,4.9C5.118,32.5,6.366,34.3,8.439,34.3a.422.422,0,0,0,.1-.021,18.084,18.084,0,0,0,33.679,0,.415.415,0,0,0,.108.022c2.074,0,3.322-1.806,3.424-4.955C45.841,26.717,45.7,24.939,43.219,24.374ZM25.383,5.916c2.923,0,7.746.719,8.126,5.388A17.985,17.985,0,0,0,17.272,11.3C17.777,6.462,23.049,5.916,25.383,5.916Zm0,4.364A17.268,17.268,0,0,1,42.505,25.757C31.53,25.6,21.045,16.792,20.94,16.7a.448.448,0,0,0-.654.079c-3.355,4.609-9.494,6.664-11.767,7.292A17.266,17.266,0,0,1,25.383,10.281ZM5.918,29.317c-.077-2.341.149-3.417,1.475-3.906a18.069,18.069,0,0,0,.817,7.957C6.336,33.183,5.966,30.777,5.918,29.317ZM25.383,44.856A17.263,17.263,0,0,1,8.413,30.478h4.419c.162,1.932,2.441,3.416,5.33,3.416s5.167-1.484,5.329-3.416h4.146c.261,1.861,2.5,3.27,5.319,3.27s5.058-1.409,5.319-3.27h4.077A17.263,17.263,0,0,1,25.383,44.856Zm-11.662-14.6c0-1.473,2.034-2.718,4.442-2.718S22.6,28.787,22.6,30.261s-2.034,2.718-4.441,2.718S13.721,31.734,13.721,30.261Zm14.794-.146c0-1.473,2.034-2.718,4.442-2.718S37.4,28.641,37.4,30.115s-2.034,2.718-4.442,2.718S28.514,31.588,28.514,30.115Zm9.721-.552c-.381-1.766-2.56-3.082-5.28-3.082s-4.9,1.316-5.28,3.082H23.41c-.467-1.693-2.6-2.936-5.247-2.936-2.789,0-5.013,1.383-5.309,3.216v-.28H8.282a17.071,17.071,0,0,1,.064-4.493c1.918-.479,8.536-2.434,12.381-7.366,1.987,1.581,11.695,8.868,21.85,8.971q.022.444.023.893a17.447,17.447,0,0,1-.118,1.994H38.235Zm6.617-.246c-.048,1.462-.419,3.87-2.3,4.051a18.139,18.139,0,0,0,.714-2.89h0v-.014a17.994,17.994,0,0,0,.094-5.106C44.813,25.82,44.931,26.9,44.852,29.317Z" transform="translate(-5 -5)" fill="#718f79" stroke="#718f79" stroke-width="0.7"></path></g></g></svg> 