<?xml version="1.0" encoding="UTF-8"?> <svg xmlns="http://www.w3.org/2000/svg" width="39.167" height="39.17" viewBox="0 0 39.167 39.17"><g id="pills" transform="translate(-0.013)"><g id="Сгруппировать_82" data-name="Сгруппировать 82" transform="translate(0.013 0)"><g id="Сгруппировать_81" data-name="Сгруппировать 81" transform="translate(0 0)"><path id="Контур_5739" data-name="Контур 5739" d="M30.548,2.655a8.918,8.918,0,0,0-12.623-.073l-.073.073-7.42,7.42a.908.908,0,0,0-.348.348L2.619,17.879A8.945,8.945,0,0,0,15.3,30.5l.009-.009,7.456-7.484a.918.918,0,0,0,.266-.266l7.447-7.465A8.926,8.926,0,0,0,30.548,2.655ZM14,29.2A7.112,7.112,0,1,1,3.92,19.17l7-7L20.957,22.23ZM29.183,13.967,22.249,20.92,12.21,10.88l6.943-6.943a7.092,7.092,0,0,1,10.03,10.03Z" transform="translate(-0.013 0)" fill="#718f79"></path></g></g><g id="Сгруппировать_84" data-name="Сгруппировать 84" transform="translate(17.337 6.479)"><g id="Сгруппировать_83" data-name="Сгруппировать 83"><path id="Контур_5740" data-name="Контур 5740" d="M193.876,71.006A.9.9,0,0,0,192.584,71l-3.169,3.114a.913.913,0,0,0,1.273,1.31l.009-.009,3.16-3.114A.912.912,0,0,0,193.876,71.006Z" transform="translate(-189.138 -70.727)" fill="#718f79"></path></g></g><g id="Сгруппировать_86" data-name="Сгруппировать 86" transform="translate(21.412 21.369)"><g id="Сгруппировать_85" data-name="Сгруппировать 85"><path id="Контур_5741" data-name="Контур 5741" d="M248.8,235.925l-.009-.009a8.815,8.815,0,0,0-12.476-.082l-.082.082a8.887,8.887,0,1,0,12.568.009ZM235.461,242.2a7.049,7.049,0,0,1,11.34-5.6l-9.884,9.893A7.09,7.09,0,0,1,235.461,242.2Zm12.036,4.983a7.055,7.055,0,0,1-9.279.6L248.1,237.9A7.035,7.035,0,0,1,247.5,247.182Z" transform="translate(-233.626 -233.287)" fill="#718f79"></path></g></g></g></svg> 